<svg width="34" height="34" viewBox="0 0 34 34" fill="none" xmlns="http://www.w3.org/2000/svg">
<path d="M5.66669 26.9166V14.1666C5.66669 13.718 5.76727 13.293 5.96844 12.8916C6.1696 12.4903 6.4468 12.1597 6.80002 11.9L15.3 5.52498C15.7959 5.1472 16.3625 4.95831 17 4.95831C17.6375 4.95831 18.2042 5.1472 18.7 5.52498L27.2 11.9C27.5542 12.1597 27.8319 12.4903 28.033 12.8916C28.2342 13.293 28.3343 13.718 28.3334 14.1666V26.9166C28.3334 27.6958 28.0557 28.3631 27.5004 28.9184C26.945 29.4737 26.2782 29.7509 25.5 29.75H21.25C20.8486 29.75 20.5124 29.614 20.2414 29.342C19.9703 29.07 19.8343 28.7338 19.8334 28.3333V21.25C19.8334 20.8486 19.6974 20.5124 19.4254 20.2413C19.1534 19.9703 18.8171 19.8343 18.4167 19.8333H15.5834C15.182 19.8333 14.8457 19.9693 14.5747 20.2413C14.3036 20.5133 14.1676 20.8495 14.1667 21.25V28.3333C14.1667 28.7347 14.0307 29.0714 13.7587 29.3434C13.4867 29.6154 13.1505 29.7509 12.75 29.75H8.50002C7.72085 29.75 7.05408 29.4728 6.49969 28.9184C5.9453 28.364 5.66763 27.6968 5.66669 26.9166Z" fill="white"/>
</svg>
