<svg width="29" height="29" viewBox="0 0 29 29" fill="none" xmlns="http://www.w3.org/2000/svg">
<path d="M14.5 26.5834C12.9896 26.5834 11.575 26.2966 10.2563 25.723C8.93764 25.1495 7.78972 24.3741 6.81258 23.397C5.83544 22.4198 5.0601 21.2719 4.48654 19.9532C3.91299 18.6345 3.62581 17.2196 3.625 15.7084C3.625 15.366 3.741 15.0792 3.973 14.848C4.205 14.6168 4.49178 14.5008 4.83333 14.5C5.17489 14.4992 5.46207 14.6152 5.69487 14.848C5.92768 15.0808 6.04328 15.3676 6.04167 15.7084C6.04167 18.0646 6.86253 20.0636 8.50425 21.7053C10.146 23.347 12.1446 24.1675 14.5 24.1667C16.8554 24.1659 18.8544 23.3454 20.497 21.7053C22.1395 20.0652 22.9599 18.0662 22.9583 15.7084C22.9567 13.3505 22.1363 11.3519 20.497 9.71261C18.8577 8.0733 16.8587 7.25244 14.5 7.25002H14.3187L15.3458 8.27711C15.5875 8.51877 15.7035 8.80072 15.6938 9.12294C15.6842 9.44516 15.5682 9.72711 15.3458 9.96877C15.1042 10.2104 14.8174 10.3365 14.4855 10.347C14.1536 10.3575 13.8664 10.2415 13.624 9.99898L10.5125 6.88752C10.2708 6.64586 10.15 6.36391 10.15 6.04169C10.15 5.71947 10.2708 5.43752 10.5125 5.19586L13.624 2.0844C13.8656 1.84273 14.1528 1.72673 14.4855 1.7364C14.8182 1.74606 15.105 1.87213 15.3458 2.11461C15.5674 2.35627 15.6834 2.63822 15.6938 2.96044C15.7043 3.28266 15.5883 3.56461 15.3458 3.80627L14.3187 4.83336H14.5C16.0104 4.83336 17.4254 5.12054 18.7449 5.6949C20.0644 6.26926 21.2123 7.04461 22.1886 8.02094C23.165 8.99727 23.9403 10.1452 24.5147 11.4647C25.089 12.7842 25.3758 14.1987 25.375 15.7084C25.3742 17.218 25.0874 18.6329 24.5147 19.9532C23.9419 21.2735 23.1666 22.4215 22.1886 23.397C21.2107 24.3725 20.0628 25.1479 18.7449 25.723C17.427 26.2982 16.012 26.585 14.5 26.5834Z" fill="white"/>
</svg>
