<svg width="28" height="28" viewBox="0 0 28 28" fill="none" xmlns="http://www.w3.org/2000/svg">
<path d="M23.4441 24.5C23.2121 24.5 22.9895 24.4078 22.8254 24.2437C22.6613 24.0796 22.5691 23.8571 22.5691 23.625V4.375C22.5691 4.14294 22.6613 3.92038 22.8254 3.75628C22.9895 3.59219 23.2121 3.5 23.4441 3.5C23.6762 3.5 23.8988 3.59219 24.0629 3.75628C24.227 3.92038 24.3191 4.14294 24.3191 4.375V23.625C24.3207 23.7403 24.2992 23.8548 24.2557 23.9617C24.2123 24.0686 24.1479 24.1656 24.0664 24.2472C23.9848 24.3288 23.8877 24.3932 23.7808 24.4366C23.674 24.48 23.5595 24.5016 23.4441 24.5ZM19.4775 13.3128C19.488 13.7194 19.4038 14.1228 19.2317 14.4913C19.0597 14.8598 18.8043 15.1832 18.4858 15.4362L7.85748 23.7078C7.47714 23.996 7.02564 24.1745 6.55081 24.2212H6.28248C5.87855 24.2313 5.4782 24.1432 5.11581 23.9645C4.68431 23.7539 4.32053 23.4265 4.06581 23.0195C3.81218 22.6138 3.67869 22.1446 3.68081 21.6662V6.3245C3.68207 5.8644 3.80698 5.4131 4.04248 5.01783C4.28517 4.6249 4.62724 4.30296 5.03414 4.0845C5.43946 3.86541 5.89668 3.76054 6.35696 3.78109C6.81724 3.80164 7.2633 3.94683 7.64748 4.20117L18.2875 11.2945C18.6258 11.5173 18.9058 11.8172 19.1041 12.1695C19.3135 12.5175 19.4411 12.9084 19.4775 13.3128Z" fill="white"/>
</svg>
