<svg width="161" height="49" viewBox="0 0 161 49" fill="none" xmlns="http://www.w3.org/2000/svg">
<g filter="url(#filter0_i_30_39)">
<rect width="161" height="49" rx="10" fill="#FFE6A7"/>
<rect x="1.5" y="1.5" width="158" height="46" rx="8.5" stroke="white" stroke-width="3"/>
<path d="M24.5 36.5834C22.9896 36.5834 21.575 36.2966 20.2563 35.723C18.9376 35.1495 17.7897 34.3741 16.8126 33.397C15.8354 32.4198 15.0601 31.2719 14.4865 29.9532C13.913 28.6345 13.6258 27.2196 13.625 25.7084C13.625 25.366 13.741 25.0792 13.973 24.848C14.205 24.6168 14.4918 24.5008 14.8333 24.5C15.1749 24.4992 15.4621 24.6152 15.6949 24.848C15.9277 25.0808 16.0433 25.3676 16.0417 25.7084C16.0417 28.0646 16.8625 30.0636 18.5042 31.7053C20.146 33.347 22.1446 34.1675 24.5 34.1667C26.8554 34.1659 28.8544 33.3454 30.497 31.7053C32.1395 30.0652 32.9599 28.0662 32.9583 25.7084C32.9567 23.3505 32.1363 21.3519 30.497 19.7126C28.8577 18.0733 26.8587 17.2524 24.5 17.25H24.3187L25.3458 18.2771C25.5875 18.5188 25.7035 18.8007 25.6938 19.1229C25.6842 19.4452 25.5682 19.7271 25.3458 19.9688C25.1042 20.2104 24.8174 20.3365 24.4855 20.347C24.1536 20.3575 23.8664 20.2415 23.624 19.999L20.5125 16.8875C20.2708 16.6459 20.15 16.3639 20.15 16.0417C20.15 15.7195 20.2708 15.4375 20.5125 15.1959L23.624 12.0844C23.8656 11.8427 24.1528 11.7267 24.4855 11.7364C24.8182 11.7461 25.105 11.8721 25.3458 12.1146C25.5674 12.3563 25.6834 12.6382 25.6938 12.9604C25.7043 13.2827 25.5883 13.5646 25.3458 13.8063L24.3187 14.8334H24.5C26.0104 14.8334 27.4254 15.1205 28.7449 15.6949C30.0644 16.2693 31.2123 17.0446 32.1886 18.0209C33.165 18.9973 33.9403 20.1452 34.5147 21.4647C35.089 22.7842 35.3758 24.1987 35.375 25.7084C35.3742 27.218 35.0874 28.6329 34.5147 29.9532C33.9419 31.2735 33.1666 32.4215 32.1886 33.397C31.2107 34.3725 30.0628 35.1479 28.7449 35.723C27.427 36.2982 26.012 36.585 24.5 36.5834Z" fill="white"/>
<path d="M45.7614 36V12.7273H55.375C57.1174 12.7273 58.6212 13.0417 59.8864 13.6705C61.1591 14.2917 62.1402 15.1856 62.8295 16.3523C63.5189 17.5114 63.8636 18.8864 63.8636 20.4773C63.8636 22.0909 63.5114 23.4621 62.8068 24.5909C62.1023 25.7121 61.1023 26.5682 59.8068 27.1591C58.5114 27.7424 56.9773 28.0341 55.2045 28.0341H49.125V23.6023H54.1591C55.0076 23.6023 55.7159 23.4924 56.2841 23.2727C56.8598 23.0455 57.2955 22.7045 57.5909 22.25C57.8864 21.7879 58.0341 21.197 58.0341 20.4773C58.0341 19.7576 57.8864 19.1629 57.5909 18.6932C57.2955 18.2159 56.8598 17.8598 56.2841 17.625C55.7083 17.3826 55 17.2614 54.1591 17.2614H51.3864V36H45.7614ZM58.8636 25.3636L64.6591 36H58.5227L52.8409 25.3636H58.8636ZM74.7642 36.3295C72.9384 36.3295 71.3627 35.9697 70.0369 35.25C68.7188 34.5227 67.7036 33.4886 66.9915 32.1477C66.2869 30.7992 65.9347 29.197 65.9347 27.3409C65.9347 25.5379 66.2907 23.9621 67.0028 22.6136C67.715 21.2576 68.7188 20.2045 70.0142 19.4545C71.3097 18.697 72.8362 18.3182 74.5938 18.3182C75.8362 18.3182 76.9725 18.5114 78.0028 18.8977C79.0331 19.2841 79.9233 19.8561 80.6733 20.6136C81.4233 21.3712 82.0066 22.3068 82.4233 23.4205C82.84 24.5265 83.0483 25.7955 83.0483 27.2273V28.6136H67.8778V25.3864H77.8778C77.8703 24.7955 77.7301 24.2689 77.4574 23.8068C77.1847 23.3447 76.8097 22.9848 76.3324 22.7273C75.8627 22.4621 75.321 22.3295 74.7074 22.3295C74.0862 22.3295 73.5294 22.4697 73.0369 22.75C72.5445 23.0227 72.1544 23.3977 71.8665 23.875C71.5786 24.3447 71.4271 24.8788 71.4119 25.4773V28.7614C71.4119 29.4735 71.5521 30.0985 71.8324 30.6364C72.1127 31.1667 72.5104 31.5795 73.0256 31.875C73.5407 32.1705 74.1544 32.3182 74.8665 32.3182C75.3589 32.3182 75.8059 32.25 76.2074 32.1136C76.6089 31.9773 76.9536 31.7765 77.2415 31.5114C77.5294 31.2462 77.7453 30.9205 77.8892 30.5341L82.9915 30.6818C82.7794 31.8258 82.3134 32.822 81.5938 33.6705C80.8816 34.5114 79.946 35.1667 78.7869 35.6364C77.6278 36.0985 76.2869 36.3295 74.7642 36.3295ZM85.8864 42.5455V18.5455H91.3864V21.5341H91.5568C91.7841 21.0038 92.1061 20.4924 92.5227 20C92.947 19.5076 93.4848 19.1061 94.1364 18.7955C94.7955 18.4773 95.5833 18.3182 96.5 18.3182C97.7121 18.3182 98.8447 18.6364 99.8977 19.2727C100.958 19.9091 101.814 20.8902 102.466 22.2159C103.117 23.5417 103.443 25.2311 103.443 27.2841C103.443 29.2614 103.129 30.9167 102.5 32.25C101.879 33.5833 101.038 34.5833 99.9773 35.25C98.9242 35.9167 97.7538 36.25 96.4659 36.25C95.5871 36.25 94.8258 36.1061 94.1818 35.8182C93.5379 35.5303 92.9962 35.1515 92.5568 34.6818C92.125 34.2121 91.7917 33.7083 91.5568 33.1705H91.4432V42.5455H85.8864ZM91.3295 27.2727C91.3295 28.2121 91.4545 29.0303 91.7045 29.7273C91.9621 30.4242 92.3295 30.9659 92.8068 31.3523C93.2917 31.7311 93.8712 31.9205 94.5455 31.9205C95.2273 31.9205 95.8068 31.7311 96.2841 31.3523C96.7614 30.9659 97.1212 30.4242 97.3636 29.7273C97.6136 29.0303 97.7386 28.2121 97.7386 27.2727C97.7386 26.3333 97.6136 25.5189 97.3636 24.8295C97.1212 24.1402 96.7614 23.6061 96.2841 23.2273C95.8144 22.8485 95.2348 22.6591 94.5455 22.6591C93.8636 22.6591 93.2841 22.8447 92.8068 23.2159C92.3295 23.5871 91.9621 24.1174 91.7045 24.8068C91.4545 25.4962 91.3295 26.3182 91.3295 27.2727ZM111.912 12.7273V36H106.355V12.7273H111.912ZM120.369 36.2955C119.256 36.2955 118.267 36.1098 117.403 35.7386C116.547 35.3598 115.869 34.7917 115.369 34.0341C114.877 33.2689 114.631 32.3106 114.631 31.1591C114.631 30.1894 114.801 29.3712 115.142 28.7045C115.483 28.0379 115.953 27.4962 116.551 27.0795C117.15 26.6629 117.839 26.3485 118.619 26.1364C119.4 25.9167 120.233 25.7689 121.119 25.6932C122.112 25.6023 122.911 25.5076 123.517 25.4091C124.123 25.303 124.563 25.1553 124.835 24.9659C125.116 24.7689 125.256 24.4924 125.256 24.1364V24.0795C125.256 23.4962 125.055 23.0455 124.653 22.7273C124.252 22.4091 123.71 22.25 123.028 22.25C122.294 22.25 121.703 22.4091 121.256 22.7273C120.809 23.0455 120.525 23.4848 120.403 24.0455L115.278 23.8636C115.43 22.803 115.82 21.8561 116.449 21.0227C117.085 20.1818 117.956 19.5227 119.062 19.0455C120.176 18.5606 121.513 18.3182 123.074 18.3182C124.188 18.3182 125.214 18.4508 126.153 18.7159C127.093 18.9735 127.911 19.3523 128.608 19.8523C129.305 20.3447 129.843 20.9508 130.222 21.6705C130.608 22.3902 130.801 23.2121 130.801 24.1364V36H125.574V33.5682H125.438C125.127 34.1591 124.729 34.6591 124.244 35.0682C123.767 35.4773 123.203 35.7841 122.551 35.9886C121.907 36.1932 121.18 36.2955 120.369 36.2955ZM122.085 32.6591C122.684 32.6591 123.222 32.5379 123.699 32.2955C124.184 32.053 124.57 31.7197 124.858 31.2955C125.146 30.8636 125.29 30.3636 125.29 29.7955V28.1364C125.131 28.2197 124.938 28.2955 124.71 28.3636C124.491 28.4318 124.248 28.4962 123.983 28.5568C123.718 28.6174 123.445 28.6705 123.165 28.7159C122.884 28.7614 122.616 28.803 122.358 28.8409C121.835 28.9242 121.388 29.053 121.017 29.2273C120.653 29.4015 120.373 29.6288 120.176 29.9091C119.987 30.1818 119.892 30.5076 119.892 30.8864C119.892 31.4621 120.097 31.9015 120.506 32.2045C120.922 32.5076 121.449 32.6591 122.085 32.6591ZM136.972 42.5455C136.305 42.5455 135.676 42.4924 135.085 42.3864C134.494 42.2879 133.987 42.1553 133.562 41.9886L134.79 37.9545C135.335 38.1364 135.828 38.2424 136.267 38.2727C136.714 38.303 137.097 38.2311 137.415 38.0568C137.741 37.8902 137.991 37.5909 138.165 37.1591L138.381 36.6364L132.176 18.5455H137.994L141.21 31H141.392L144.653 18.5455H150.506L143.926 37.6705C143.608 38.625 143.157 39.4659 142.574 40.1932C141.998 40.928 141.252 41.5038 140.335 41.9205C139.426 42.3371 138.305 42.5455 136.972 42.5455Z" fill="white"/>
</g>
<defs>
<filter id="filter0_i_30_39" x="0" y="-4" width="161" height="53" filterUnits="userSpaceOnUse" color-interpolation-filters="sRGB">
<feFlood flood-opacity="0" result="BackgroundImageFix"/>
<feBlend mode="normal" in="SourceGraphic" in2="BackgroundImageFix" result="shape"/>
<feColorMatrix in="SourceAlpha" type="matrix" values="0 0 0 0 0 0 0 0 0 0 0 0 0 0 0 0 0 0 127 0" result="hardAlpha"/>
<feOffset dy="-4"/>
<feGaussianBlur stdDeviation="2"/>
<feComposite in2="hardAlpha" operator="arithmetic" k2="-1" k3="1"/>
<feColorMatrix type="matrix" values="0 0 0 0 0 0 0 0 0 0 0 0 0 0 0 0 0 0 0.5 0"/>
<feBlend mode="normal" in2="shape" result="effect1_innerShadow_30_39"/>
</filter>
</defs>
</svg>
